<svg width="1072" height="760" viewBox="0 0 1072 760" fill="none" xmlns="http://www.w3.org/2000/svg">
  <defs>
    <linearGradient id="g1" x1="0" y1="0" x2="0" y2="1">
      <stop offset="0" stop-color="#1DBA6A"/>
      <stop offset="1" stop-color="#0F2B46"/>
    </linearGradient>
    <filter id="shadow" x="-50%" y="-50%" width="200%" height="200%">
      <feDropShadow dx="0" dy="24" stdDeviation="24" flood-opacity="0.12"/>
    </filter>
  </defs>
  <rect x="120" y="80" width="680" height="520" rx="24" fill="white" stroke="#E6EEF6"/>
  <g filter="url(#shadow)">
    <rect x="170" y="120" width="180" height="440" rx="12" fill="#E6F6EF" stroke="#CDEEDF"/>
    <rect x="370" y="160" width="190" height="400" rx="12" fill="#EAF2FA" stroke="#CFDFEF"/>
    <rect x="580" y="200" width="170" height="360" rx="12" fill="#F4F8FD" stroke="#E3ECF7"/>
  </g>
  <g transform="translate(820,260)">
    <circle cx="80" cy="120" r="80" fill="white" stroke="#E6EEF6"/>
    <path d="M80 60l40 20-12 64c-2 13-12 24-25 28l-3 1-3-1c-13-4-23-15-25-28L40 80 80 60z" fill="#0F2B46"/>
    <path d="M65 120l12 12 28-28" stroke="#1DBA6A" stroke-width="8" stroke-linecap="round" stroke-linejoin="round"/>
  </g>
  <circle cx="250" cy="60" r="10" fill="#1DBA6A"/>
  <circle cx="900" cy="120" r="8" fill="#1DBA6A"/>
  <circle cx="200" cy="640" r="8" fill="#1DBA6A"/>
  <circle cx="980" cy="420" r="6" fill="#1DBA6A"/>
  <path d="M250 60C400 80 650 120 900 120" stroke="#CFE8DC" stroke-width="2" stroke-dasharray="6 8"/>
  <path d="M200 640C380 540 680 420 980 420" stroke="#CFE8DC" stroke-width="2" stroke-dasharray="6 8"/>
</svg>
